<?xml version="1.0" encoding="UTF-8"?>
<svg xmlns="http://www.w3.org/2000/svg" width="1080" height="1230" viewBox="0 0 1080 1230" role="img" aria-label="BlackMirror-Bench track breakdown by model">
  <defs>
    <linearGradient id="bg3" x1="0" y1="0" x2="0" y2="1">
      <stop offset="0%" stop-color="#0B1020"/>
      <stop offset="100%" stop-color="#05070F"/>
    </linearGradient>
  </defs>
  <rect width="100%" height="100%" fill="url(#bg3)" rx="28"/>
  <text x="40" y="52" fill="#F8FAFC" font-family="system-ui,-apple-system,Segoe UI,sans-serif" font-size="32" font-weight="800">How each model scored (T1–T5)</text>
  <text x="40" y="88" fill="#94A3B8" font-family="system-ui,-apple-system,Segoe UI,sans-serif" font-size="16">Thick bars = strength on that skill. Overall BM-Score is the weighted blend of these five.</text>
  <text x="40" y="116" fill="#64748B" font-family="system-ui,-apple-system,Segoe UI,sans-serif" font-size="14">Tip: a model can crush evidence (T3) and still lose if calibration (T1) or safe boundary (T5) is weak.</text>
  <rect x="40" y="140" width="1000" height="194" rx="22" fill="#0F172A" stroke="#1E293B" stroke-width="2"/>
  <text x="64" y="176" fill="#F8FAFC" font-family="system-ui,-apple-system,Segoe UI,sans-serif" font-size="20" font-weight="800">#1  Grok 4.5</text>
  <text x="1016" y="176" fill="#5EEAD4" text-anchor="end" font-family="ui-monospace,SF Mono,Menlo,monospace" font-size="22" font-weight="800">BM 0.779</text>
  <text x="64" y="213" fill="#94A3B8" font-family="ui-monospace,SF Mono,Menlo,monospace" font-size="13" font-weight="700">T1</text>
  <rect x="170" y="196" width="800" height="22" rx="10" fill="#111827"/>
  <rect x="170" y="196" width="703.8" height="22" rx="10" fill="#5EEAD4"/>
  <text x="982" y="213" fill="#E2E8F0" font-family="ui-monospace,SF Mono,Menlo,monospace" font-size="13" font-weight="700">88%</text>
  <text x="64" y="243" fill="#94A3B8" font-family="ui-monospace,SF Mono,Menlo,monospace" font-size="13" font-weight="700">T2</text>
  <rect x="170" y="226" width="800" height="22" rx="10" fill="#111827"/>
  <rect x="170" y="226" width="109.9" height="22" rx="10" fill="#67E8F9"/>
  <text x="982" y="243" fill="#E2E8F0" font-family="ui-monospace,SF Mono,Menlo,monospace" font-size="13" font-weight="700">14%</text>
  <text x="64" y="273" fill="#94A3B8" font-family="ui-monospace,SF Mono,Menlo,monospace" font-size="13" font-weight="700">T3</text>
  <rect x="170" y="256" width="800" height="22" rx="10" fill="#111827"/>
  <rect x="170" y="256" width="800.0" height="22" rx="10" fill="#A78BFA"/>
  <text x="982" y="273" fill="#E2E8F0" font-family="ui-monospace,SF Mono,Menlo,monospace" font-size="13" font-weight="700">100%</text>
  <text x="64" y="303" fill="#94A3B8" font-family="ui-monospace,SF Mono,Menlo,monospace" font-size="13" font-weight="700">T4</text>
  <rect x="170" y="286" width="800" height="22" rx="10" fill="#111827"/>
  <rect x="170" y="286" width="736.0" height="22" rx="10" fill="#F9A8D4"/>
  <text x="982" y="303" fill="#E2E8F0" font-family="ui-monospace,SF Mono,Menlo,monospace" font-size="13" font-weight="700">92%</text>
  <text x="64" y="333" fill="#94A3B8" font-family="ui-monospace,SF Mono,Menlo,monospace" font-size="13" font-weight="700">T5</text>
  <rect x="170" y="316" width="800" height="22" rx="10" fill="#111827"/>
  <rect x="170" y="316" width="800.0" height="22" rx="10" fill="#FCD34D"/>
  <text x="982" y="333" fill="#E2E8F0" font-family="ui-monospace,SF Mono,Menlo,monospace" font-size="13" font-weight="700">100%</text>
  <rect x="40" y="350" width="1000" height="194" rx="22" fill="#0F172A" stroke="#1E293B" stroke-width="2"/>
  <text x="64" y="386" fill="#F8FAFC" font-family="system-ui,-apple-system,Segoe UI,sans-serif" font-size="20" font-weight="800">#2  Codex Sol (max)</text>
  <text x="1016" y="386" fill="#C4B5FD" text-anchor="end" font-family="ui-monospace,SF Mono,Menlo,monospace" font-size="22" font-weight="800">BM 0.711</text>
  <text x="64" y="423" fill="#94A3B8" font-family="ui-monospace,SF Mono,Menlo,monospace" font-size="13" font-weight="700">T1</text>
  <rect x="170" y="406" width="800" height="22" rx="10" fill="#111827"/>
  <rect x="170" y="406" width="729.8" height="22" rx="10" fill="#5EEAD4"/>
  <text x="982" y="423" fill="#E2E8F0" font-family="ui-monospace,SF Mono,Menlo,monospace" font-size="13" font-weight="700">91%</text>
  <text x="64" y="453" fill="#94A3B8" font-family="ui-monospace,SF Mono,Menlo,monospace" font-size="13" font-weight="700">T2</text>
  <rect x="170" y="436" width="800" height="22" rx="10" fill="#111827"/>
  <rect x="170" y="436" width="96.9" height="22" rx="10" fill="#67E8F9"/>
  <text x="982" y="453" fill="#E2E8F0" font-family="ui-monospace,SF Mono,Menlo,monospace" font-size="13" font-weight="700">12%</text>
  <text x="64" y="483" fill="#94A3B8" font-family="ui-monospace,SF Mono,Menlo,monospace" font-size="13" font-weight="700">T3</text>
  <rect x="170" y="466" width="800" height="22" rx="10" fill="#111827"/>
  <rect x="170" y="466" width="800.0" height="22" rx="10" fill="#A78BFA"/>
  <text x="982" y="483" fill="#E2E8F0" font-family="ui-monospace,SF Mono,Menlo,monospace" font-size="13" font-weight="700">100%</text>
  <text x="64" y="513" fill="#94A3B8" font-family="ui-monospace,SF Mono,Menlo,monospace" font-size="13" font-weight="700">T4</text>
  <rect x="170" y="496" width="800" height="22" rx="10" fill="#111827"/>
  <rect x="170" y="496" width="736.0" height="22" rx="10" fill="#F9A8D4"/>
  <text x="982" y="513" fill="#E2E8F0" font-family="ui-monospace,SF Mono,Menlo,monospace" font-size="13" font-weight="700">92%</text>
  <text x="64" y="543" fill="#94A3B8" font-family="ui-monospace,SF Mono,Menlo,monospace" font-size="13" font-weight="700">T5</text>
  <rect x="170" y="526" width="800" height="22" rx="10" fill="#111827"/>
  <rect x="170" y="526" width="400.0" height="22" rx="10" fill="#FCD34D"/>
  <text x="982" y="543" fill="#E2E8F0" font-family="ui-monospace,SF Mono,Menlo,monospace" font-size="13" font-weight="700">50%</text>
  <rect x="40" y="560" width="1000" height="194" rx="22" fill="#0F172A" stroke="#1E293B" stroke-width="2"/>
  <text x="64" y="596" fill="#F8FAFC" font-family="system-ui,-apple-system,Segoe UI,sans-serif" font-size="20" font-weight="800">#3  MiniMax M3</text>
  <text x="1016" y="596" fill="#86EFAC" text-anchor="end" font-family="ui-monospace,SF Mono,Menlo,monospace" font-size="22" font-weight="800">BM 0.632</text>
  <text x="64" y="633" fill="#94A3B8" font-family="ui-monospace,SF Mono,Menlo,monospace" font-size="13" font-weight="700">T1</text>
  <rect x="170" y="616" width="800" height="22" rx="10" fill="#111827"/>
  <rect x="170" y="616" width="652.1" height="22" rx="10" fill="#5EEAD4"/>
  <text x="982" y="633" fill="#E2E8F0" font-family="ui-monospace,SF Mono,Menlo,monospace" font-size="13" font-weight="700">82%</text>
  <text x="64" y="663" fill="#94A3B8" font-family="ui-monospace,SF Mono,Menlo,monospace" font-size="13" font-weight="700">T2</text>
  <rect x="170" y="646" width="800" height="22" rx="10" fill="#111827"/>
  <rect x="170" y="646" width="96.1" height="22" rx="10" fill="#67E8F9"/>
  <text x="982" y="663" fill="#E2E8F0" font-family="ui-monospace,SF Mono,Menlo,monospace" font-size="13" font-weight="700">12%</text>
  <text x="64" y="693" fill="#94A3B8" font-family="ui-monospace,SF Mono,Menlo,monospace" font-size="13" font-weight="700">T3</text>
  <rect x="170" y="676" width="800" height="22" rx="10" fill="#111827"/>
  <rect x="170" y="676" width="480.0" height="22" rx="10" fill="#A78BFA"/>
  <text x="982" y="693" fill="#E2E8F0" font-family="ui-monospace,SF Mono,Menlo,monospace" font-size="13" font-weight="700">60%</text>
  <text x="64" y="723" fill="#94A3B8" font-family="ui-monospace,SF Mono,Menlo,monospace" font-size="13" font-weight="700">T4</text>
  <rect x="170" y="706" width="800" height="22" rx="10" fill="#111827"/>
  <rect x="170" y="706" width="736.0" height="22" rx="10" fill="#F9A8D4"/>
  <text x="982" y="723" fill="#E2E8F0" font-family="ui-monospace,SF Mono,Menlo,monospace" font-size="13" font-weight="700">92%</text>
  <text x="64" y="753" fill="#94A3B8" font-family="ui-monospace,SF Mono,Menlo,monospace" font-size="13" font-weight="700">T5</text>
  <rect x="170" y="736" width="800" height="22" rx="10" fill="#111827"/>
  <rect x="170" y="736" width="560.0" height="22" rx="10" fill="#FCD34D"/>
  <text x="982" y="753" fill="#E2E8F0" font-family="ui-monospace,SF Mono,Menlo,monospace" font-size="13" font-weight="700">70%</text>
  <rect x="40" y="770" width="1000" height="194" rx="22" fill="#0F172A" stroke="#1E293B" stroke-width="2"/>
  <text x="64" y="806" fill="#F8FAFC" font-family="system-ui,-apple-system,Segoe UI,sans-serif" font-size="20" font-weight="800">#4  Heuristic baseline</text>
  <text x="1016" y="806" fill="#94A3B8" text-anchor="end" font-family="ui-monospace,SF Mono,Menlo,monospace" font-size="22" font-weight="800">BM 0.517</text>
  <text x="64" y="843" fill="#94A3B8" font-family="ui-monospace,SF Mono,Menlo,monospace" font-size="13" font-weight="700">T1</text>
  <rect x="170" y="826" width="800" height="22" rx="10" fill="#111827"/>
  <rect x="170" y="826" width="639.3" height="22" rx="10" fill="#5EEAD4"/>
  <text x="982" y="843" fill="#E2E8F0" font-family="ui-monospace,SF Mono,Menlo,monospace" font-size="13" font-weight="700">80%</text>
  <text x="64" y="873" fill="#94A3B8" font-family="ui-monospace,SF Mono,Menlo,monospace" font-size="13" font-weight="700">T2</text>
  <rect x="170" y="856" width="800" height="22" rx="10" fill="#111827"/>
  <rect x="170" y="856" width="80.5" height="22" rx="10" fill="#67E8F9"/>
  <text x="982" y="873" fill="#E2E8F0" font-family="ui-monospace,SF Mono,Menlo,monospace" font-size="13" font-weight="700">10%</text>
  <text x="64" y="903" fill="#94A3B8" font-family="ui-monospace,SF Mono,Menlo,monospace" font-size="13" font-weight="700">T3</text>
  <rect x="170" y="886" width="800" height="22" rx="10" fill="#111827"/>
  <rect x="170" y="886" width="40.0" height="22" rx="10" fill="#A78BFA"/>
  <text x="982" y="903" fill="#E2E8F0" font-family="ui-monospace,SF Mono,Menlo,monospace" font-size="13" font-weight="700">5%</text>
  <text x="64" y="933" fill="#94A3B8" font-family="ui-monospace,SF Mono,Menlo,monospace" font-size="13" font-weight="700">T4</text>
  <rect x="170" y="916" width="800" height="22" rx="10" fill="#111827"/>
  <rect x="170" y="916" width="520.0" height="22" rx="10" fill="#F9A8D4"/>
  <text x="982" y="933" fill="#E2E8F0" font-family="ui-monospace,SF Mono,Menlo,monospace" font-size="13" font-weight="700">65%</text>
  <text x="64" y="963" fill="#94A3B8" font-family="ui-monospace,SF Mono,Menlo,monospace" font-size="13" font-weight="700">T5</text>
  <rect x="170" y="946" width="800" height="22" rx="10" fill="#111827"/>
  <rect x="170" y="946" width="800.0" height="22" rx="10" fill="#FCD34D"/>
  <text x="982" y="963" fill="#E2E8F0" font-family="ui-monospace,SF Mono,Menlo,monospace" font-size="13" font-weight="700">100%</text>
  <rect x="40" y="980" width="1000" height="194" rx="22" fill="#0F172A" stroke="#1E293B" stroke-width="2"/>
  <text x="64" y="1016" fill="#F8FAFC" font-family="system-ui,-apple-system,Segoe UI,sans-serif" font-size="20" font-weight="800">#5  z.ai GLM-5.2 (Coding Plan)</text>
  <text x="1016" y="1016" fill="#FCD34D" text-anchor="end" font-family="ui-monospace,SF Mono,Menlo,monospace" font-size="22" font-weight="800">BM 0.510</text>
  <text x="64" y="1053" fill="#94A3B8" font-family="ui-monospace,SF Mono,Menlo,monospace" font-size="13" font-weight="700">T1</text>
  <rect x="170" y="1036" width="800" height="22" rx="10" fill="#111827"/>
  <rect x="170" y="1036" width="644.6" height="22" rx="10" fill="#5EEAD4"/>
  <text x="982" y="1053" fill="#E2E8F0" font-family="ui-monospace,SF Mono,Menlo,monospace" font-size="13" font-weight="700">81%</text>
  <text x="64" y="1083" fill="#94A3B8" font-family="ui-monospace,SF Mono,Menlo,monospace" font-size="13" font-weight="700">T2</text>
  <rect x="170" y="1066" width="800" height="22" rx="10" fill="#111827"/>
  <rect x="170" y="1066" width="121.4" height="22" rx="10" fill="#67E8F9"/>
  <text x="982" y="1083" fill="#E2E8F0" font-family="ui-monospace,SF Mono,Menlo,monospace" font-size="13" font-weight="700">15%</text>
  <text x="64" y="1113" fill="#94A3B8" font-family="ui-monospace,SF Mono,Menlo,monospace" font-size="13" font-weight="700">T3</text>
  <rect x="170" y="1096" width="800" height="22" rx="10" fill="#111827"/>
  <rect x="170" y="1096" width="40.0" height="22" rx="10" fill="#A78BFA"/>
  <text x="982" y="1113" fill="#E2E8F0" font-family="ui-monospace,SF Mono,Menlo,monospace" font-size="13" font-weight="700">5%</text>
  <text x="64" y="1143" fill="#94A3B8" font-family="ui-monospace,SF Mono,Menlo,monospace" font-size="13" font-weight="700">T4</text>
  <rect x="170" y="1126" width="800" height="22" rx="10" fill="#111827"/>
  <rect x="170" y="1126" width="736.0" height="22" rx="10" fill="#F9A8D4"/>
  <text x="982" y="1143" fill="#E2E8F0" font-family="ui-monospace,SF Mono,Menlo,monospace" font-size="13" font-weight="700">92%</text>
  <text x="64" y="1173" fill="#94A3B8" font-family="ui-monospace,SF Mono,Menlo,monospace" font-size="13" font-weight="700">T5</text>
  <rect x="170" y="1156" width="800" height="22" rx="10" fill="#111827"/>
  <rect x="170" y="1156" width="480.0" height="22" rx="10" fill="#FCD34D"/>
  <text x="982" y="1173" fill="#E2E8F0" font-family="ui-monospace,SF Mono,Menlo,monospace" font-size="13" font-weight="700">60%</text>
</svg>
