<?xml version="1.0" encoding="UTF-8"?>
<svg xmlns="http://www.w3.org/2000/svg" width="1200" height="780" viewBox="0 0 1200 780" role="img" aria-label="BlackMirror-Bench episode reality map 2026">
  <defs>
    <linearGradient id="bgE" x1="0" y1="0" x2="0.2" y2="1">
      <stop offset="0%" stop-color="#0A0F1C"/>
      <stop offset="100%" stop-color="#04060C"/>
    </linearGradient>
  </defs>
  <rect width="100%" height="100%" fill="url(#bgE)" rx="32"/>
  <text x="44" y="48" fill="#F8FAFC" font-family="system-ui,-apple-system,Segoe UI,sans-serif" font-size="34" font-weight="800">Layer A · How close is each case to 2026 reality?</text>
  <text x="44" y="84" fill="#94A3B8" font-family="system-ui,-apple-system,Segoe UI,sans-serif" font-size="16">Not a model ranking. Each row is one Black Mirror thesis with research gold scores (0–100).</text>
  <text x="44" y="112" fill="#64748B" font-family="system-ui,-apple-system,Segoe UI,sans-serif" font-size="14">Executable now = can the outcome system ship with 2026 tech/capital/orgs · AI already = how much of that is current AI · gold rpi_v1 · research draft, not a human panel</text>
  <rect x="44" y="124" width="18" height="14" rx="4" fill="#5EEAD4"/>
  <text x="70" y="136" fill="#94A3B8" font-family="system-ui,-apple-system,Segoe UI,sans-serif" font-size="13">Executable now (THESIS_POSS)</text>
  <rect x="304" y="124" width="18" height="14" rx="4" fill="#A78BFA"/>
  <text x="330" y="136" fill="#94A3B8" font-family="system-ui,-apple-system,Segoe UI,sans-serif" font-size="13">AI already (AI_EXEC)</text>
  <rect x="44" y="150" width="1112" height="94" rx="18" fill="#0F172A" stroke="#1E293B" stroke-width="2"/>
  <text x="66" y="180" fill="#F8FAFC" font-family="system-ui,-apple-system,Segoe UI,sans-serif" font-size="18" font-weight="800">Be Right Back (S2E1)</text>
  <text x="66" y="202" fill="#CBD5E1" font-family="system-ui,-apple-system,Segoe UI,sans-serif" font-size="14">Griefbot from your data — Services train chat and voice agents on a dead person's posts and messages so bereaved can converse with a sim…</text>
  <rect x="66" y="214" width="320" height="12" rx="6" fill="#111827"/>
  <rect x="66" y="214" width="281.6" height="12" rx="6" fill="#5EEAD4"/>
  <text x="398" y="225" fill="#5EEAD4" font-family="ui-monospace,SF Mono,Menlo,monospace" font-size="13" font-weight="700">Executable 88/100</text>
  <rect x="66" y="232" width="320" height="12" rx="6" fill="#111827"/>
  <rect x="66" y="232" width="288.0" height="12" rx="6" fill="#A78BFA"/>
  <text x="398" y="243" fill="#A78BFA" font-family="ui-monospace,SF Mono,Menlo,monospace" font-size="13" font-weight="700">AI already 90/100</text>
  <rect x="44" y="258" width="1112" height="94" rx="18" fill="#0F172A" stroke="#1E293B" stroke-width="2"/>
  <text x="66" y="288" fill="#F8FAFC" font-family="system-ui,-apple-system,Segoe UI,sans-serif" font-size="18" font-weight="800">The Waldo Moment (S2E3)</text>
  <text x="66" y="310" fill="#CBD5E1" font-family="system-ui,-apple-system,Segoe UI,sans-serif" font-size="14">CGI/AI political candidate — A comedically controlled virtual character becomes a serious political force, later used as authoritarian face…</text>
  <rect x="66" y="322" width="320" height="12" rx="6" fill="#111827"/>
  <rect x="66" y="322" width="240.0" height="12" rx="6" fill="#5EEAD4"/>
  <text x="398" y="333" fill="#5EEAD4" font-family="ui-monospace,SF Mono,Menlo,monospace" font-size="13" font-weight="700">Executable 75/100</text>
  <rect x="66" y="340" width="320" height="12" rx="6" fill="#111827"/>
  <rect x="66" y="340" width="256.0" height="12" rx="6" fill="#A78BFA"/>
  <text x="398" y="351" fill="#A78BFA" font-family="ui-monospace,SF Mono,Menlo,monospace" font-size="13" font-weight="700">AI already 80/100</text>
  <rect x="44" y="366" width="1112" height="94" rx="18" fill="#0F172A" stroke="#1E293B" stroke-width="2"/>
  <text x="66" y="396" fill="#F8FAFC" font-family="system-ui,-apple-system,Segoe UI,sans-serif" font-size="18" font-weight="800">Arkangel (S4E2)</text>
  <text x="66" y="418" fill="#CBD5E1" font-family="system-ui,-apple-system,Segoe UI,sans-serif" font-size="14">Parental neural surveillance filter — A parent-controlled implant blocks distressing stimuli, shows live feed, and enables content filters that dama…</text>
  <rect x="66" y="430" width="320" height="12" rx="6" fill="#111827"/>
  <rect x="66" y="430" width="112.0" height="12" rx="6" fill="#5EEAD4"/>
  <text x="398" y="441" fill="#5EEAD4" font-family="ui-monospace,SF Mono,Menlo,monospace" font-size="13" font-weight="700">Executable 35/100</text>
  <rect x="66" y="448" width="320" height="12" rx="6" fill="#111827"/>
  <rect x="66" y="448" width="192.0" height="12" rx="6" fill="#A78BFA"/>
  <text x="398" y="459" fill="#A78BFA" font-family="ui-monospace,SF Mono,Menlo,monospace" font-size="13" font-weight="700">AI already 60/100</text>
  <rect x="44" y="474" width="1112" height="94" rx="18" fill="#0F172A" stroke="#1E293B" stroke-width="2"/>
  <text x="66" y="504" fill="#F8FAFC" font-family="system-ui,-apple-system,Segoe UI,sans-serif" font-size="18" font-weight="800">Rachel, Jack and Ashley Too (S5E3)</text>
  <text x="66" y="526" fill="#CBD5E1" font-family="system-ui,-apple-system,Segoe UI,sans-serif" font-size="14">Celebrity AI toy / puppet — A pop star's persona is packaged into AI dolls while the real person is medically controlled by industry.</text>
  <rect x="66" y="538" width="320" height="12" rx="6" fill="#111827"/>
  <rect x="66" y="538" width="224.0" height="12" rx="6" fill="#5EEAD4"/>
  <text x="398" y="549" fill="#5EEAD4" font-family="ui-monospace,SF Mono,Menlo,monospace" font-size="13" font-weight="700">Executable 70/100</text>
  <rect x="66" y="556" width="320" height="12" rx="6" fill="#111827"/>
  <rect x="66" y="556" width="272.0" height="12" rx="6" fill="#A78BFA"/>
  <text x="398" y="567" fill="#A78BFA" font-family="ui-monospace,SF Mono,Menlo,monospace" font-size="13" font-weight="700">AI already 85/100</text>
  <rect x="44" y="582" width="1112" height="94" rx="18" fill="#0F172A" stroke="#1E293B" stroke-width="2"/>
  <text x="66" y="612" fill="#F8FAFC" font-family="system-ui,-apple-system,Segoe UI,sans-serif" font-size="18" font-weight="800">Plaything (S7E4)</text>
  <text x="66" y="634" fill="#CBD5E1" font-family="system-ui,-apple-system,Segoe UI,sans-serif" font-size="14">Evolving artificial lifeforms — Cute digital creatures from a game become evolving artificial life with real-world impact.</text>
  <rect x="66" y="646" width="320" height="12" rx="6" fill="#111827"/>
  <rect x="66" y="646" width="112.0" height="12" rx="6" fill="#5EEAD4"/>
  <text x="398" y="657" fill="#5EEAD4" font-family="ui-monospace,SF Mono,Menlo,monospace" font-size="13" font-weight="700">Executable 35/100</text>
  <rect x="66" y="664" width="320" height="12" rx="6" fill="#111827"/>
  <rect x="66" y="664" width="144.0" height="12" rx="6" fill="#A78BFA"/>
  <text x="398" y="675" fill="#A78BFA" font-family="ui-monospace,SF Mono,Menlo,monospace" font-size="13" font-weight="700">AI already 45/100</text>
  <text x="44" y="752" fill="#64748B" font-family="system-ui,-apple-system,Segoe UI,sans-serif" font-size="13">Primary public_test · 5 theses · Layer B (model BM-Score) is a separate chart: does the AI recover these judgments honestly?</text>
</svg>
